<svg width="23" height="21" viewBox="0 0 23 21" fill="none" xmlns="http://www.w3.org/2000/svg">
<path d="M10.5472 0.735608C10.9599 -0.0162274 12.0401 -0.0162266 12.4528 0.735609L15.1622 5.67098C15.3184 5.95535 15.5933 6.15513 15.912 6.21573L21.4431 7.26744C22.2857 7.42765 22.6195 8.45493 22.032 9.0798L18.1754 13.1817C17.9532 13.4181 17.8482 13.7413 17.889 14.0632L18.598 19.6485C18.706 20.4994 17.8321 21.1343 17.0563 20.7686L11.9634 18.3684C11.6699 18.2301 11.3301 18.2301 11.0366 18.3684L5.94369 20.7686C5.16786 21.1343 4.294 20.4994 4.402 19.6485L5.11097 14.0632C5.15182 13.7413 5.04679 13.4181 4.82458 13.1817L0.968018 9.0798C0.380525 8.45493 0.714309 7.42765 1.55689 7.26744L7.08797 6.21573C7.40667 6.15513 7.68164 5.95535 7.83775 5.67098L10.5472 0.735608Z" fill="#DFFFE4"/>
</svg>
